<svg xmlns="http://www.w3.org/2000/svg" version="1.1" xmlns:xlink="http://www.w3.org/1999/xlink" xmlns:svgjs="http://svgjs.dev/svgjs" width="1500" height="1500" viewBox="0 0 1500 1500"><rect width="1500" height="1500" fill="#000000"></rect><g transform="matrix(0.6666666666666666,0,0,0.6666666666666666,249.39393939393938,438.5856950067477)"><svg viewBox="0 0 396 247" data-background-color="#444444" preserveAspectRatio="xMidYMid meet" height="935" width="1500" xmlns="http://www.w3.org/2000/svg" xmlns:xlink="http://www.w3.org/1999/xlink"><g id="tight-bounds" transform="matrix(1,0,0,1,0.2400000000000091,-0.09999999999999432)"><svg viewBox="0 0 395.52 247.2" height="247.2" width="395.52"><g><svg></svg></g><g><svg viewBox="0 0 395.52 247.2" height="247.2" width="395.52"><g><path d="M55.039 247.2l26.403-45.732h7.584l-22.403 38.804h262.274l-22.403-38.804 7.584 0 26.403 45.732zM197.76 0l26.403 45.732-7.583 0-18.82-32.596-18.82 32.596-7.583 0z" fill="#ffffff" fill-rule="nonzero" stroke="none" stroke-width="1" stroke-linecap="butt" stroke-linejoin="miter" stroke-miterlimit="10" stroke-dasharray="" stroke-dashoffset="0" font-family="none" font-weight="none" font-size="none" text-anchor="none" style="mix-blend-mode: normal" data-fill-palette-color="tertiary"></path></g><g transform="matrix(1,0,0,1,34.898301993134226,67.97999999999999)"><svg viewBox="0 0 325.72339601373153 111.24" height="111.24" width="325.72339601373153"><g><svg viewBox="0 0 325.72339601373153 111.24" height="111.24" width="325.72339601373153"><g><svg viewBox="0 0 325.72339601373153 111.24" height="111.24" width="325.72339601373153"><g id="textblocktransform"><svg viewBox="0 0 325.72339601373153 111.24" height="111.24" width="325.72339601373153" id="textblock"><g><svg viewBox="0 0 325.72339601373153 111.24" height="111.24" width="325.72339601373153"><g transform="matrix(1,0,0,1,0,0)"><svg width="325.72339601373153" viewBox="2 -34.85178493576 102.04 34.85178493576" height="111.24" data-palette-color="#ffffff"><path d="M11.2-0.05L2.25 0Q2 0 2-0.25L2-0.25 2.1-34.6Q2.1-34.8 2.3-34.8L2.3-34.8 11.65-34.85Q14.4-34.9 16.68-33.55 18.95-32.2 20.3-29.93 21.65-27.65 21.65-24.9L21.65-24.9 21.65-10.55Q21.65-7.65 20.25-5.28 18.85-2.9 16.5-1.5 14.15-0.1 11.2-0.05L11.2-0.05ZM8.15-28.8L8.1-6.15 11.2-6.15Q13.05-6.15 14.33-7.45 15.6-8.75 15.6-10.55L15.6-10.55 15.6-24.95Q15.6-26.55 14.43-27.73 13.25-28.9 11.65-28.85L11.65-28.85 8.15-28.8ZM41.95 0L25.8 0Q25.6 0 25.6-0.25L25.6-0.25 25.65-34.6Q25.65-34.8 25.85-34.8L25.85-34.8 41.9-34.8Q42.1-34.8 42.1-34.55L42.1-34.55 42.1-28.95Q42.1-28.75 41.9-28.75L41.9-28.75 31.65-28.75 31.65-20.95 41.9-20.95Q42.1-20.95 42.1-20.75L42.1-20.75 42.15-15.1Q42.15-14.9 41.95-14.9L41.95-14.9 31.65-14.9 31.65-6.15 41.95-6.15Q42.15-6.15 42.15-5.9L42.15-5.9 42.15-0.2Q42.15 0 41.95 0L41.95 0ZM58.24 0L52.2 0Q51.99 0 51.95-0.25L51.95-0.25 45.05-34.6Q44.99-34.8 45.24-34.8L45.24-34.8 50.89-34.8Q51.09-34.8 51.14-34.6L51.14-34.6 55.24-11.7 59.24-34.6Q59.3-34.8 59.49-34.8L59.49-34.8 65.09-34.8Q65.34-34.8 65.3-34.6L65.3-34.6 58.49-0.25Q58.45 0 58.24 0L58.24 0ZM76.29-14.45L66.64-14.45Q66.39-14.45 66.39-14.65L66.39-14.65 66.39-20.1Q66.39-20.3 66.64-20.3L66.64-20.3 76.29-20.3Q76.54-20.3 76.54-20.1L76.54-20.1 76.54-14.65Q76.54-14.45 76.29-14.45L76.29-14.45ZM87.24 0L81.59 0Q81.39 0 81.39-0.25L81.39-0.25 81.49-34.6Q81.49-34.8 81.69-34.8L81.69-34.8 87.79-34.8Q87.99-34.8 88.14-34.6L88.14-34.6 92.69-28 97.24-34.6Q97.39-34.8 97.59-34.8L97.59-34.8 103.74-34.8Q103.94-34.8 103.94-34.6L103.94-34.6 104.04-0.25Q104.04 0 103.84 0L103.84 0 98.19 0Q97.99 0 97.99-0.25L97.99-0.25 97.94-25.75 92.69-18.15 87.49-25.75 87.44-0.25Q87.44 0 87.24 0L87.24 0Z" opacity="1" transform="matrix(1,0,0,1,0,0)" fill="#ffffff" class="wordmark-text-0" data-fill-palette-color="primary" id="text-0"></path></svg></g></svg></g></svg></g></svg></g></svg></g></svg></g></svg></g><defs></defs></svg><rect width="395.52" height="247.2" fill="none" stroke="none" visibility="hidden"></rect></g></svg></g></svg>